<?xml version="1.0" encoding="utf-8"?>
<!-- Generator: Adobe Illustrator 19.1.0, SVG Export Plug-In . SVG Version: 6.00 Build 0)  -->
<svg version="1.1" id="Layer_1" xmlns="http://www.w3.org/2000/svg" xmlns:xlink="http://www.w3.org/1999/xlink" x="0px" y="0px"
	 viewBox="0 0 296.8 279" style="enable-background:new 0 0 296.8 279;" xml:space="preserve">
<style type="text/css">
	.st0{fill:none;stroke:#000000;stroke-linejoin:round;stroke-miterlimit:10;}
	.st1{fill:none;stroke:#000000;stroke-linecap:round;stroke-linejoin:round;stroke-miterlimit:10;}
</style>
<g>
	<path class="st0" d="M94.7,162.4c10-10,24.5-11.6,32.5-3.6c8,8,6.4,22.5-3.6,32.5c-10,10-24.5,11.6-32.5,3.6
		C83.1,186.9,84.8,172.4,94.7,162.4z"/>
	<line class="st1" x1="235.5" y1="108.2" x2="177.9" y2="50.6"/>
	<line class="st1" x1="192.2" y1="151.6" x2="134.5" y2="93.9"/>
	<line class="st1" x1="163.3" y1="180.4" x2="105.7" y2="122.8"/>
	<path class="st0" d="M170.5,86.6c8-8,20.9-8,28.9,0c8,8,8,20.9,0,28.9c-8,8-20.9,8-28.9,0C162.6,107.5,162.6,94.6,170.5,86.6z"/>
	<polygon class="st1" points="148.9,166 120,137.1 148.9,108.2 177.8,137.1 	"/>
	<path class="st1" d="M192.2,64.9l28.9,28.9l28.9-28.9c4-4,4-10.4,0-14.4l-14.4-14.4c-4-4-10.4-4-14.4,0L192.2,64.9z"/>
	<line class="st1" x1="242.8" y1="43.3" x2="262.2" y2="23.8"/>
	<path class="st1" d="M91.1,194.9l-14.4,14.4c10,10,10,26.1,0,36.1c-10,10-26.1,10-36.1,0c-10-10-10-26.1,0-36.1"/>
</g>
</svg>
