<?xml version="1.0" encoding="utf-8"?>
<!-- Generator: Adobe Illustrator 19.1.0, SVG Export Plug-In . SVG Version: 6.00 Build 0)  -->
<svg version="1.1" id="Layer_1" xmlns="http://www.w3.org/2000/svg" xmlns:xlink="http://www.w3.org/1999/xlink" x="0px" y="0px"
	 viewBox="0 0 296.8 279" style="enable-background:new 0 0 296.8 279;" xml:space="preserve">
<style type="text/css">
	.st0{fill:none;stroke:#000000;stroke-linecap:round;stroke-linejoin:round;stroke-miterlimit:10;}
	.st1{fill:none;stroke:#000000;stroke-linejoin:round;stroke-miterlimit:10;}
</style>
<g>
	<path class="st0" d="M165.1,19.6c25.4,0,48.5,10.2,65.1,25.6h0l-65.2,66.5V19.6z"/>
	<path class="st0" d="M209.8,97.8L144.6,163V70.8c-50.9,0-92.1,41.3-92.1,92.1c0,50.9,41.3,92.1,92.1,92.1s92.1-41.3,92.1-92.1
		C236.8,137.5,226.4,114.5,209.8,97.8z"/>
	<path class="st0" d="M195.3,112.3L144.6,163V91.3C105,91.3,73,123.4,73,163c0,39.6,32.1,71.7,71.7,71.7s71.7-32.1,71.7-71.7
		C216.3,143.2,208.3,125.3,195.3,112.3z"/>
	<path class="st0" d="M165.1,40.1c19.8,0,37.7,8,50.7,21"/>
	<path class="st0" d="M129.3,127.1c0,5.7-4.6,10.2-10.2,10.2c-5.6,0-10.2-4.6-10.2-10.2c0-5.6,4.6-10.2,10.2-10.2
		C124.7,116.9,129.3,121.5,129.3,127.1z"/>
	<path class="st0" d="M119,173.2c0,5.7-4.6,10.2-10.2,10.2c-5.6,0-10.2-4.6-10.2-10.2c0-5.6,4.6-10.2,10.2-10.2
		C114.4,163,119,167.6,119,173.2z"/>
	<path class="st0" d="M160,203.9c0,5.7-4.6,10.2-10.2,10.2c-5.6,0-10.2-4.6-10.2-10.2c0-5.6,4.6-10.2,10.2-10.2
		C155.4,193.7,160,198.3,160,203.9z"/>
	<path class="st0" d="M195.8,173.2c0,5.7-4.6,10.2-10.2,10.2c-5.6,0-10.2-4.6-10.2-10.2c0-5.6,4.6-10.2,10.2-10.2
		C191.2,163,195.8,167.6,195.8,173.2z"/>
	<path class="st1" d="M182.8,124.8l2.8,2.3c4,4,4,11.4,0,15.4c-4,4-11.4,4-15.4,0l-2.8-2.3"/>
	<path class="st0" d="M203.6,73.2l-2.7-2.4c-4-4-11.4-4-15.4,0c-4,4-4,11.4,0,15.4l2.6,2.5"/>
</g>
</svg>
