<?xml version="1.0" encoding="utf-8"?>
<!-- Generator: Adobe Illustrator 19.1.0, SVG Export Plug-In . SVG Version: 6.00 Build 0)  -->
<svg version="1.1" id="Layer_1" xmlns="http://www.w3.org/2000/svg" xmlns:xlink="http://www.w3.org/1999/xlink" x="0px" y="0px"
	 viewBox="0 0 285.5 271" style="enable-background:new 0 0 285.5 271;" xml:space="preserve">
<style type="text/css">
	.st0{fill:none;stroke:#000000;stroke-linecap:round;stroke-linejoin:round;stroke-miterlimit:10;}
	.st1{fill:none;stroke:#000000;stroke-linejoin:round;stroke-miterlimit:10;}
</style>
<path class="st0" d="M225.4,162.7h30.9c0-82.5-14.4-139.2-28.7-139.2h-2.3v211.4"/>
<path class="st0" d="M19.1,33.8v41.2C19.1,92.2,33,106,50.1,106C67.2,106,81,92.2,81,75.1V33.8"/>
<line class="st0" x1="50.1" y1="33.8" x2="50.1" y2="234.9"/>
<circle class="st1" cx="137.7" cy="167.9" r="67"/>
<path class="st1" d="M137.7,203.8c0,0,34.8-25,34.8-43.6c0-21.4-28.4-28.1-34.8-2.1c-6.3-26-34.8-19.3-34.8,2.1
	C103,178.8,137.7,203.8,137.7,203.8z"/>
</svg>
